<svg width="30" height="31" viewBox="0 0 30 31" fill="none" xmlns="http://www.w3.org/2000/svg">
<path fill-rule="evenodd" clip-rule="evenodd" d="M6.54135 11.9053C6.54135 5.33017 11.7928 0 18.2707 0C24.7486 0 30 5.33017 30 11.9053C30 18.4804 24.7486 23.8105 18.2707 23.8105C15.6017 23.8105 13.1392 22.9043 11.1684 21.3805L2.69543 29.9806C2.07881 30.6065 1.07908 30.6065 0.462463 29.9806C-0.154154 29.3547 -0.154154 28.34 0.462463 27.7141L8.93545 19.1141C7.43423 17.1137 6.54135 14.6143 6.54135 11.9053ZM18.2707 3.20526C13.5368 3.20526 9.69925 7.10039 9.69925 11.9053C9.69925 14.3081 10.6569 16.4809 12.2098 18.0571C13.7626 19.6332 15.9033 20.6053 18.2707 20.6053C23.0045 20.6053 26.8421 16.7101 26.8421 11.9053C26.8421 7.10039 23.0045 3.20526 18.2707 3.20526Z" fill="black"/>
</svg>
