<svg width="25" height="30" viewBox="0 0 25 30" fill="none" xmlns="http://www.w3.org/2000/svg">
<path fill-rule="evenodd" clip-rule="evenodd" d="M12.5 3.00003C7.56889 3.00003 3.57143 6.35793 3.57143 10.5001C3.57143 14.7915 6.01838 18.9879 8.62055 22.2095C9.90618 23.8012 11.1941 25.1113 12.1596 26.0221C12.2782 26.1341 12.3919 26.2399 12.5 26.3393C12.6081 26.2399 12.7218 26.1341 12.8404 26.0221C13.8059 25.1113 15.0938 23.8012 16.3795 22.2095C18.9816 18.9879 21.4286 14.7915 21.4286 10.5001C21.4286 6.35793 17.4311 3.00003 12.5 3.00003ZM12.5 28.5003C11.2716 29.5891 11.2713 29.5888 11.2708 29.5884L11.2669 29.5853L11.2582 29.5783L11.2295 29.5551C11.2053 29.5355 11.1713 29.5078 11.128 29.472C11.0414 29.4006 10.9179 29.2973 10.7627 29.1639C10.4524 28.8973 10.0148 28.5101 9.49223 28.0171C8.44875 27.0327 7.05811 25.6184 5.66517 23.8939C2.91019 20.4831 0 15.6794 0 10.5001C0 4.70106 5.59644 0 12.5 0C19.4036 0 25 4.70106 25 10.5001C25 15.6794 22.0898 20.4831 19.3348 23.8939C17.9419 25.6184 16.5513 27.0327 15.5078 28.0171C14.9852 28.5101 14.5476 28.8973 14.2373 29.1639C14.0821 29.2973 13.9586 29.4006 13.872 29.472C13.8287 29.5078 13.7947 29.5355 13.7705 29.5551L13.7418 29.5783L13.7331 29.5853L13.7302 29.5876C13.7298 29.5879 13.7284 29.5891 12.5 28.5003ZM12.5 28.5003L13.7284 29.5891C13.0395 30.1374 11.9596 30.1368 11.2708 29.5884L12.5 28.5003ZM12.5 9.0001C11.5138 9.0001 10.7143 9.67168 10.7143 10.5001C10.7143 11.3286 11.5138 12.0001 12.5 12.0001C13.4862 12.0001 14.2857 11.3286 14.2857 10.5001C14.2857 9.67168 13.4862 9.0001 12.5 9.0001ZM7.14286 10.5001C7.14286 8.01481 9.54133 6.00007 12.5 6.00007C15.4587 6.00007 17.8571 8.01481 17.8571 10.5001C17.8571 12.9854 15.4587 15.0002 12.5 15.0002C9.54133 15.0002 7.14286 12.9854 7.14286 10.5001Z" fill="black"/>
</svg>
