<svg width="33" height="31" viewBox="0 0 33 31" fill="none" xmlns="http://www.w3.org/2000/svg">
<path d="M21.0802 19.4233C19.8825 20.532 18.2582 21.1548 16.5646 21.1548C14.8709 21.1548 13.2467 20.532 12.0489 19.4233M11.7742 12.285H11.7902M21.3549 12.285H21.3709M30.9355 15.242C30.9355 16.9895 30.5638 18.7198 29.8416 20.3342C29.1194 21.9487 28.0608 23.4156 26.7264 24.6512C25.3919 25.8869 23.8077 26.867 22.0641 27.5357C20.3205 28.2045 18.4518 28.5486 16.5646 28.5486C14.6773 28.5486 12.8086 28.2045 11.065 27.5357C9.32147 26.867 7.73723 25.8869 6.40276 24.6512C5.06829 23.4156 4.00974 21.9487 3.28753 20.3342C2.56532 18.7198 2.1936 16.9895 2.1936 15.242C2.1936 11.7129 3.70768 8.32831 6.40276 5.83284C9.09784 3.33737 12.7532 1.93542 16.5646 1.93542C20.376 1.93542 24.0313 3.33737 26.7264 5.83284C29.4215 8.32831 30.9355 11.7129 30.9355 15.242Z" stroke="#4857EC" stroke-width="3" stroke-linecap="round" stroke-linejoin="round"/>
</svg>
