<svg width="33" height="31" viewBox="0 0 33 31" fill="none" xmlns="http://www.w3.org/2000/svg">
<path d="M21.0802 19.4233C19.8825 20.532 18.2582 21.1549 16.5646 21.1549C14.8709 21.1549 13.2467 20.532 12.0489 19.4233M11.7742 12.2851H11.7902M21.3549 12.2851H21.3709M30.9355 15.2421C30.9355 16.9895 30.5638 18.7199 29.8416 20.3343C29.1194 21.9487 28.0608 23.4156 26.7264 24.6513C25.3919 25.8869 23.8077 26.8671 22.0641 27.5358C20.3205 28.2045 18.4518 28.5487 16.5646 28.5487C14.6773 28.5487 12.8086 28.2045 11.065 27.5358C9.32147 26.8671 7.73723 25.8869 6.40276 24.6513C5.06829 23.4156 4.00974 21.9487 3.28753 20.3343C2.56532 18.7199 2.1936 16.9895 2.1936 15.2421C2.1936 11.713 3.70768 8.32837 6.40276 5.8329C9.09784 3.33743 12.7532 1.93549 16.5646 1.93549C20.376 1.93549 24.0313 3.33743 26.7264 5.8329C29.4215 8.32837 30.9355 11.713 30.9355 15.2421Z" stroke="#6AAF35" stroke-width="3" stroke-linecap="round" stroke-linejoin="round"/>
</svg>
