<svg width="30" height="30" viewBox="0 0 30 30" fill="none" xmlns="http://www.w3.org/2000/svg">
<path fill-rule="evenodd" clip-rule="evenodd" d="M9.51184 0.462463C10.1627 1.07908 10.1627 2.07881 9.51184 2.69543L6.17851 5.85333C5.52764 6.46994 4.47236 6.46994 3.82149 5.85333C3.17061 5.23671 3.17061 4.23698 3.82149 3.62036L7.15482 0.462463C7.8057 -0.154154 8.86097 -0.154154 9.51184 0.462463ZM16.1785 0.462463C16.8294 1.07908 16.8294 2.07881 16.1785 2.69543L12.8452 5.85333C12.1943 6.46994 11.139 6.46994 10.4882 5.85333C9.83728 5.23671 9.83728 4.23698 10.4882 3.62036L13.8215 0.462463C14.4724 -0.154154 15.5276 -0.154154 16.1785 0.462463ZM22.8452 0.462463C23.4961 1.07908 23.4961 2.07881 22.8452 2.69543L19.5118 5.85333C18.861 6.46994 17.8057 6.46994 17.1548 5.85333C16.5039 5.23671 16.5039 4.23698 17.1548 3.62036L20.4882 0.462463C21.139 -0.154154 22.1943 -0.154154 22.8452 0.462463ZM0 12.6316C0 10.0155 2.23858 7.89474 5 7.89474H21.6667C23.8768 7.89474 25.9964 8.7265 27.5592 10.2071C29.122 11.6876 30 13.6957 30 15.7895C30 17.8833 29.122 19.8913 27.5592 21.3719C26.3953 22.4746 24.9224 23.2174 23.3333 23.5247V25.2632C23.3333 27.8792 21.0948 30 18.3333 30H5C2.23858 30 0 27.8792 0 25.2632V12.6316ZM23.3333 20.2554C24.0298 20.0221 24.6699 19.6433 25.2022 19.1389C26.1399 18.2506 26.6667 17.0458 26.6667 15.7895C26.6667 14.5332 26.1399 13.3284 25.2022 12.44C24.6699 11.9357 24.0298 11.5568 23.3333 11.3235V20.2554ZM20 11.0526H5C4.07953 11.0526 3.33333 11.7596 3.33333 12.6316V25.2632C3.33333 26.1352 4.07953 26.8421 5 26.8421H18.3333C19.2538 26.8421 20 26.1352 20 25.2632V11.0526Z" fill="black"/>
</svg>
