<svg width="30" height="30" viewBox="0 0 30 30" fill="none" xmlns="http://www.w3.org/2000/svg">
<path fill-rule="evenodd" clip-rule="evenodd" d="M5.80901 4.8675C7.4943 1.95983 10.642 0 14.2499 0C18.3223 0 21.8086 2.49569 23.2682 6.03888C27.0494 6.42367 29.9998 9.61728 29.9998 13.5C29.9998 13.5355 29.9998 13.5719 29.9999 13.6093C30.0008 14.2818 30.002 15.2487 29.7346 16.047C29.5786 16.5128 29.2986 17.0362 28.7819 17.4339C28.6476 17.5373 28.5071 17.6247 28.3618 17.6976L27.6452 23.4303C27.1761 27.1835 23.9856 30 20.2032 30H9.79663C6.01423 30 2.82374 27.1835 2.35459 23.4303L1.56336 17.1003C0.651704 15.909 0 14.6524 0 12.75C0 9.04225 2.4446 5.90851 5.80901 4.8675ZM4.69914 18L5.33141 23.0582C5.6129 25.3101 7.52719 27 9.79663 27H9.99993V18H4.69914ZM12.9999 18V27H16.9999V18H12.9999ZM3.74097 15C3.22159 14.2648 2.99998 13.6611 2.99998 12.75C2.99998 10.2327 4.7731 8.12612 7.13965 7.61731L7.85435 7.46365L8.17367 6.80605C9.26919 4.55003 11.58 3 14.2499 3C17.3398 3 19.9483 5.0774 20.7477 7.9146L21.0723 9.06636L22.2673 9.00587C22.3442 9.00198 22.4217 9 22.4998 9C24.9851 9 26.9998 11.0147 26.9998 13.5C26.9998 13.8913 26.9992 14.2174 26.9797 14.5112C26.9649 14.7336 26.9415 14.8912 26.9162 15H3.74097ZM19.9999 18V27H20.2032C22.4726 27 24.3869 25.3101 24.6684 23.0582L25.3007 18H19.9999Z" fill="black"/>
</svg>
